REM DIRINDEX 1\2\4\18,1\2\4\19,1\2\5\20,1\2\5\21,1\2\6\22,1\2\6\23,1\2\7\24,1\2\8\25,1\2\9\26,1\2\10\27,1\2\10\28,1\3\11\29,1\3\11\30,1\3\11\31,1\3\11\32,1\3\12\33,1\3\12\34,1\3\12\35,1\3\12\36,1\3\13\37,1\3\13\38,1\3\13\39,1\3\13\40,1\3\14\41,1\3\14\42,1\3\15\43,1\3\15\44,1\3\16\45,1\3\16\46,1\3\17\47,1\3\17\48,1\3\17\49,1\3\17\50
REM DIRNAME cjc135,folder01,folder02,folder03,folder04,folder05,folder06,folder07,folder08,folder09,folder10,folder11,folder12,folder13,folder14,folder15,folder16,folder17,folder18,folder19,folder20,folder21,folder22,folder23,folder24,folder25,folder26,folder27,folder28,folder29,folder30,folder31,folder32,folder33,folder34,folder35,folder36,folder37,folder38,folder39,folder40,folder41,folder42,folder43,folder44,folder45,folder46,folder47,folder48,folder49
TITLE ""
FILE "01.mp3" MP3
  TRACK 01 AUDIO
    TITLE "0:"
    INDEX 01 00:00:00
  TRACK 02 AUDIO
    TITLE "18:cjc135_0001"
    INDEX 01 00:00:15
  TRACK 03 AUDIO
    TITLE "0:"
    INDEX 01 00:01:30
  TRACK 04 AUDIO
    TITLE "19:cjc135_0002"
    INDEX 01 00:01:56
  TRACK 05 AUDIO
    TITLE "0:"
    INDEX 01 00:03:27
  TRACK 06 AUDIO
    TITLE "18:cjc135_0003"
    INDEX 01 00:04:31
  TRACK 07 AUDIO
    TITLE "0:"
    INDEX 01 00:05:28
  TRACK 08 AUDIO
    TITLE "19:cjc135_0004"
    INDEX 01 00:05:52
  TRACK 09 AUDIO
    TITLE "0:"
    INDEX 01 00:07:51
  TRACK 10 AUDIO
    TITLE "18:cjc135_0005"
    INDEX 01 00:08:50
  TRACK 11 AUDIO
    TITLE "0:"
    INDEX 01 00:09:57
  TRACK 12 AUDIO
    TITLE "19:cjc135_0006"
    INDEX 01 00:10:04
  TRACK 13 AUDIO
    TITLE "0:"
    INDEX 01 00:11:52
  TRACK 14 AUDIO
    TITLE "18:cjc135_0007"
    INDEX 01 00:12:52
  TRACK 15 AUDIO
    TITLE "0:"
    INDEX 01 00:13:49
  TRACK 16 AUDIO
    TITLE "19:cjc135_0008"
    INDEX 01 00:14:02
  TRACK 17 AUDIO
    TITLE "0:"
    INDEX 01 00:16:55
  TRACK 18 AUDIO
    TITLE "18:cjc135_0009"
    INDEX 01 00:17:55
  TRACK 19 AUDIO
    TITLE "0:"
    INDEX 01 00:19:07
  TRACK 20 AUDIO
    TITLE "19:cjc135_0010"
    INDEX 01 00:19:32
  TRACK 21 AUDIO
    TITLE "0:"
    INDEX 01 00:21:51
  TRACK 22 AUDIO
    TITLE "18:cjc135_0011"
    INDEX 01 00:22:50
  TRACK 23 AUDIO
    TITLE "0:"
    INDEX 01 00:24:10
  TRACK 24 AUDIO
    TITLE "19:cjc135_0012"
    INDEX 01 00:24:37
  TRACK 25 AUDIO
    TITLE "0:"
    INDEX 01 00:26:28
  TRACK 26 AUDIO
    TITLE "18:cjc135_0013"
    INDEX 01 00:27:28
  TRACK 27 AUDIO
    TITLE "0:"
    INDEX 01 00:28:49
  TRACK 28 AUDIO
    TITLE "19:cjc135_0014"
    INDEX 01 00:28:72
  TRACK 29 AUDIO
    TITLE "0:"
    INDEX 01 00:30:57
  TRACK 30 AUDIO
    TITLE "18:cjc135_0015"
    INDEX 01 00:31:59
  TRACK 31 AUDIO
    TITLE "0:"
    INDEX 01 00:32:70
  TRACK 32 AUDIO
    TITLE "19:cjc135_0016"
    INDEX 01 00:33:21
  TRACK 33 AUDIO
    TITLE "0:"
    INDEX 01 00:36:07
  TRACK 34 AUDIO
    TITLE "18:cjc135_0017"
    INDEX 01 00:37:07
  TRACK 35 AUDIO
    TITLE "0:"
    INDEX 01 00:38:12
  TRACK 36 AUDIO
    TITLE "19:cjc135_0018"
    INDEX 01 00:38:37
  TRACK 37 AUDIO
    TITLE "0:"
    INDEX 01 00:40:13
  TRACK 38 AUDIO
    TITLE "18:cjc135_0019"
    INDEX 01 00:41:18
  TRACK 39 AUDIO
    TITLE "0:"
    INDEX 01 00:42:25
  TRACK 40 AUDIO
    TITLE "19:cjc135_0020"
    INDEX 01 00:42:49
  TRACK 41 AUDIO
    TITLE "0:"
    INDEX 01 00:44:40
  TRACK 42 AUDIO
    TITLE "18:cjc135_0021"
    INDEX 01 00:45:41
  TRACK 43 AUDIO
    TITLE "0:"
    INDEX 01 00:46:37
  TRACK 44 AUDIO
    TITLE "19:cjc135_0022"
    INDEX 01 00:46:56
  TRACK 45 AUDIO
    TITLE "0:"
    INDEX 01 00:48:28
  TRACK 46 AUDIO
    TITLE "18:cjc135_0023"
    INDEX 01 00:49:31
  TRACK 47 AUDIO
    TITLE "0:"
    INDEX 01 00:50:37
  TRACK 48 AUDIO
    TITLE "19:cjc135_0024"
    INDEX 01 00:50:62
  TRACK 49 AUDIO
    TITLE "0:"
    INDEX 01 00:52:55
  TRACK 50 AUDIO
    TITLE "18:cjc135_0025"
    INDEX 01 00:53:62
  TRACK 51 AUDIO
    TITLE "0:"
    INDEX 01 00:55:04
  TRACK 52 AUDIO
    TITLE "19:cjc135_0026"
    INDEX 01 00:55:30
  TRACK 53 AUDIO
    TITLE "0:"
    INDEX 01 00:58:07
  TRACK 54 AUDIO
    TITLE "18:cjc135_0027"
    INDEX 01 00:59:06
  TRACK 55 AUDIO
    TITLE "0:"
    INDEX 01 00:59:73
  TRACK 56 AUDIO
    TITLE "19:cjc135_0028"
    INDEX 01 01:00:23
  TRACK 57 AUDIO
    TITLE "0:"
    INDEX 01 01:01:48
  TRACK 58 AUDIO
    TITLE "18:cjc135_0029"
    INDEX 01 01:02:50
  TRACK 59 AUDIO
    TITLE "0:"
    INDEX 01 01:03:43
  TRACK 60 AUDIO
    TITLE "19:cjc135_0030"
    INDEX 01 01:03:71
  TRACK 61 AUDIO
    TITLE "0:"
    INDEX 01 01:05:40
  TRACK 62 AUDIO
    TITLE "18:cjc135_0031"
    INDEX 01 01:06:40
  TRACK 63 AUDIO
    TITLE "0:"
    INDEX 01 01:07:45
  TRACK 64 AUDIO
    TITLE "19:cjc135_0032"
    INDEX 01 01:07:74
  TRACK 65 AUDIO
    TITLE "0:"
    INDEX 01 01:10:16
  TRACK 66 AUDIO
    TITLE "18:cjc135_0033"
    INDEX 01 01:11:17
  TRACK 67 AUDIO
    TITLE "0:"
    INDEX 01 01:12:19
  TRACK 68 AUDIO
    TITLE "19:cjc135_0034"
    INDEX 01 01:12:42
  TRACK 69 AUDIO
    TITLE "0:"
    INDEX 01 01:13:73
  TRACK 70 AUDIO
    TITLE "18:cjc135_0035"
    INDEX 01 01:14:72
  TRACK 71 AUDIO
    TITLE "0:"
    INDEX 01 01:16:01
  TRACK 72 AUDIO
    TITLE "19:cjc135_0036"
    INDEX 01 01:16:24
  TRACK 73 AUDIO
    TITLE "0:"
    INDEX 01 01:18:58
  TRACK 74 AUDIO
    TITLE "18:cjc135_0037"
    INDEX 01 01:19:58
  TRACK 75 AUDIO
    TITLE "0:"
    INDEX 01 01:20:67
  TRACK 76 AUDIO
    TITLE "19:cjc135_0038"
    INDEX 01 01:21:25
  TRACK 77 AUDIO
    TITLE "0:"
    INDEX 01 01:23:09
  TRACK 78 AUDIO
    TITLE "18:cjc135_0039"
    INDEX 01 01:24:10
  TRACK 79 AUDIO
    TITLE "0:"
    INDEX 01 01:25:13
  TRACK 80 AUDIO
    TITLE "19:cjc135_0040"
    INDEX 01 01:25:37
  TRACK 81 AUDIO
    TITLE "0:"
    INDEX 01 01:27:12
  TRACK 82 AUDIO
    TITLE "18:cjc135_0041"
    INDEX 01 01:28:12
  TRACK 83 AUDIO
    TITLE "0:"
    INDEX 01 01:29:25
  TRACK 84 AUDIO
    TITLE "19:cjc135_0042"
    INDEX 01 01:29:50
  TRACK 85 AUDIO
    TITLE "0:"
    INDEX 01 01:32:25
  TRACK 86 AUDIO
    TITLE "18:cjc135_0043"
    INDEX 01 01:33:25
  TRACK 87 AUDIO
    TITLE "0:"
    INDEX 01 01:34:28
  TRACK 88 AUDIO
    TITLE "19:cjc135_0044"
    INDEX 01 01:34:55
  TRACK 89 AUDIO
    TITLE "0:"
    INDEX 01 01:36:25
  TRACK 90 AUDIO
    TITLE "18:cjc135_0045"
    INDEX 01 01:37:24
  TRACK 91 AUDIO
    TITLE "0:"
    INDEX 01 01:38:34
  TRACK 92 AUDIO
    TITLE "19:cjc135_0046"
    INDEX 01 01:38:59
  TRACK 93 AUDIO
    TITLE "0:"
    INDEX 01 01:40:66
  TRACK 94 AUDIO
    TITLE "18:cjc135_0047"
    INDEX 01 01:41:67
  TRACK 95 AUDIO
    TITLE "0:"
    INDEX 01 01:43:00
  TRACK 96 AUDIO
    TITLE "19:cjc135_0048"
    INDEX 01 01:43:25
  TRACK 97 AUDIO
    TITLE "0:"
    INDEX 01 01:45:22
  TRACK 98 AUDIO
    TITLE "18:cjc135_0049"
    INDEX 01 01:46:25
  TRACK 99 AUDIO
    TITLE "0:"
    INDEX 01 01:47:31
  TRACK 100 AUDIO
    TITLE "19:cjc135_0050"
    INDEX 01 01:47:56
  TRACK 101 AUDIO
    TITLE "0:"
    INDEX 01 01:49:55
  TRACK 102 AUDIO
    TITLE "18:cjc135_0051"
    INDEX 01 01:50:54
  TRACK 103 AUDIO
    TITLE "0:"
    INDEX 01 01:51:66
  TRACK 104 AUDIO
    TITLE "19:cjc135_0052"
    INDEX 01 01:52:14
  TRACK 105 AUDIO
    TITLE "0:"
    INDEX 01 01:54:05
  TRACK 106 AUDIO
    TITLE "18:cjc135_0053"
    INDEX 01 01:55:05
  TRACK 107 AUDIO
    TITLE "0:"
    INDEX 01 01:56:04
  TRACK 108 AUDIO
    TITLE "19:cjc135_0054"
    INDEX 01 01:56:30
  TRACK 109 AUDIO
    TITLE "0:"
    INDEX 01 01:59:06
  TRACK 110 AUDIO
    TITLE "18:cjc135_0055"
    INDEX 01 02:00:08
  TRACK 111 AUDIO
    TITLE "0:"
    INDEX 01 02:01:09
  TRACK 112 AUDIO
    TITLE "19:cjc135_0056"
    INDEX 01 02:01:33
  TRACK 113 AUDIO
    TITLE "0:"
    INDEX 01 02:03:22
  TRACK 114 AUDIO
    TITLE "18:cjc135_0057"
    INDEX 01 02:04:19
  TRACK 115 AUDIO
    TITLE "0:"
    INDEX 01 02:05:19
  TRACK 116 AUDIO
    TITLE "19:cjc135_0058"
    INDEX 01 02:05:44
  TRACK 117 AUDIO
    TITLE "0:"
    INDEX 01 02:07:49
  TRACK 118 AUDIO
    TITLE "18:cjc135_0059"
    INDEX 01 02:08:50
  TRACK 119 AUDIO
    TITLE "0:"
    INDEX 01 02:09:42
  TRACK 120 AUDIO
    TITLE "19:cjc135_0060"
    INDEX 01 02:09:68
  TRACK 121 AUDIO
    TITLE "0:"
    INDEX 01 02:11:61
  TRACK 122 AUDIO
    TITLE "18:cjc135_0061"
    INDEX 01 02:12:60
  TRACK 123 AUDIO
    TITLE "0:"
    INDEX 01 02:13:65
  TRACK 124 AUDIO
    TITLE "19:cjc135_0062"
    INDEX 01 02:14:14
  TRACK 125 AUDIO
    TITLE "0:"
    INDEX 01 02:16:15
  TRACK 126 AUDIO
    TITLE "18:cjc135_0063"
    INDEX 01 02:17:18
  TRACK 127 AUDIO
    TITLE "0:"
    INDEX 01 02:18:21
  TRACK 128 AUDIO
    TITLE "19:cjc135_0064"
    INDEX 01 02:18:43
  TRACK 129 AUDIO
    TITLE "0:"
    INDEX 01 02:21:22
  TRACK 130 AUDIO
    TITLE "18:cjc135_0065"
    INDEX 01 02:22:23
  TRACK 131 AUDIO
    TITLE "0:"
    INDEX 01 02:23:15
  TRACK 132 AUDIO
    TITLE "19:cjc135_0066"
    INDEX 01 02:23:36
  TRACK 133 AUDIO
    TITLE "0:"
    INDEX 01 02:25:27
  TRACK 134 AUDIO
    TITLE "18:cjc135_0067"
    INDEX 01 02:26:25
  TRACK 135 AUDIO
    TITLE "0:"
    INDEX 01 02:27:28
  TRACK 136 AUDIO
    TITLE "19:cjc135_0068"
    INDEX 01 02:27:48
  TRACK 137 AUDIO
    TITLE "0:"
    INDEX 01 02:29:27
  TRACK 138 AUDIO
    TITLE "18:cjc135_0069"
    INDEX 01 02:30:29
  TRACK 139 AUDIO
    TITLE "0:"
    INDEX 01 02:31:28
  TRACK 140 AUDIO
    TITLE "19:cjc135_0070"
    INDEX 01 02:31:51
  TRACK 141 AUDIO
    TITLE "0:"
    INDEX 01 02:33:15
  TRACK 142 AUDIO
    TITLE "18:cjc135_0071"
    INDEX 01 02:34:17
  TRACK 143 AUDIO
    TITLE "0:"
    INDEX 01 02:35:18
  TRACK 144 AUDIO
    TITLE "19:cjc135_0072"
    INDEX 01 02:35:45
  TRACK 145 AUDIO
    TITLE "0:"
    INDEX 01 02:37:48
  TRACK 146 AUDIO
    TITLE "18:cjc135_0073"
    INDEX 01 02:38:50
  TRACK 147 AUDIO
    TITLE "0:"
    INDEX 01 02:39:55
  TRACK 148 AUDIO
    TITLE "19:cjc135_0074"
    INDEX 01 02:40:05
  TRACK 149 AUDIO
    TITLE "0:"
    INDEX 01 02:42:47
  TRACK 150 AUDIO
    TITLE "18:cjc135_0075"
    INDEX 01 02:43:49
  TRACK 151 AUDIO
    TITLE "0:"
    INDEX 01 02:44:58
  TRACK 152 AUDIO
    TITLE "19:cjc135_0076"
    INDEX 01 02:45:10
  TRACK 153 AUDIO
    TITLE "0:"
    INDEX 01 02:47:56
  TRACK 154 AUDIO
    TITLE "18:cjc135_0077"
    INDEX 01 02:48:54
  TRACK 155 AUDIO
    TITLE "0:"
    INDEX 01 02:49:59
  TRACK 156 AUDIO
    TITLE "19:cjc135_0078"
    INDEX 01 02:50:14
  TRACK 157 AUDIO
    TITLE "0:"
    INDEX 01 02:52:28
  TRACK 158 AUDIO
    TITLE "18:cjc135_0079"
    INDEX 01 02:53:28
  TRACK 159 AUDIO
    TITLE "0:"
    INDEX 01 02:54:33
  TRACK 160 AUDIO
    TITLE "19:cjc135_0080"
    INDEX 01 02:54:60
  TRACK 161 AUDIO
    TITLE "0:"
    INDEX 01 02:56:30
  TRACK 162 AUDIO
    TITLE "18:cjc135_0081"
    INDEX 01 02:57:37
  TRACK 163 AUDIO
    TITLE "0:"
    INDEX 01 02:58:50
  TRACK 164 AUDIO
    TITLE "19:cjc135_0082"
    INDEX 01 02:58:74
  TRACK 165 AUDIO
    TITLE "0:"
    INDEX 01 03:00:57
  TRACK 166 AUDIO
    TITLE "18:cjc135_0083"
    INDEX 01 03:01:57
  TRACK 167 AUDIO
    TITLE "0:"
    INDEX 01 03:03:01
  TRACK 168 AUDIO
    TITLE "19:cjc135_0084"
    INDEX 01 03:03:24
  TRACK 169 AUDIO
    TITLE "0:"
    INDEX 01 03:05:37
  TRACK 170 AUDIO
    TITLE "18:cjc135_0085"
    INDEX 01 03:06:36
  TRACK 171 AUDIO
    TITLE "0:"
    INDEX 01 03:07:34
  TRACK 172 AUDIO
    TITLE "19:cjc135_0086"
    INDEX 01 03:07:59
  TRACK 173 AUDIO
    TITLE "0:"
    INDEX 01 03:10:22
  TRACK 174 AUDIO
    TITLE "18:cjc135_0087"
    INDEX 01 03:11:26
  TRACK 175 AUDIO
    TITLE "0:"
    INDEX 01 03:12:37
  TRACK 176 AUDIO
    TITLE "19:cjc135_0088"
    INDEX 01 03:12:64
  TRACK 177 AUDIO
    TITLE "0:"
    INDEX 01 03:14:18
  TRACK 178 AUDIO
    TITLE "18:cjc135_0089"
    INDEX 01 03:15:19
  TRACK 179 AUDIO
    TITLE "0:"
    INDEX 01 03:16:38
  TRACK 180 AUDIO
    TITLE "19:cjc135_0090"
    INDEX 01 03:16:64
  TRACK 181 AUDIO
    TITLE "0:"
    INDEX 01 03:18:69
  TRACK 182 AUDIO
    TITLE "18:cjc135_0091"
    INDEX 01 03:19:70
  TRACK 183 AUDIO
    TITLE "0:"
    INDEX 01 03:20:72
  TRACK 184 AUDIO
    TITLE "19:cjc135_0092"
    INDEX 01 03:21:22
  TRACK 185 AUDIO
    TITLE "0:"
    INDEX 01 03:23:40
  TRACK 186 AUDIO
    TITLE "18:cjc135_0093"
    INDEX 01 03:24:42
  TRACK 187 AUDIO
    TITLE "0:"
    INDEX 01 03:25:41
  TRACK 188 AUDIO
    TITLE "19:cjc135_0094"
    INDEX 01 03:25:67
  TRACK 189 AUDIO
    TITLE "0:"
    INDEX 01 03:28:59
  TRACK 190 AUDIO
    TITLE "18:cjc135_0095"
    INDEX 01 03:29:59
  TRACK 191 AUDIO
    TITLE "0:"
    INDEX 01 03:30:60
  TRACK 192 AUDIO
    TITLE "19:cjc135_0096"
    INDEX 01 03:31:13
  TRACK 193 AUDIO
    TITLE "0:"
    INDEX 01 03:33:19
  TRACK 194 AUDIO
    TITLE "18:cjc135_0097"
    INDEX 01 03:34:19
  TRACK 195 AUDIO
    TITLE "0:"
    INDEX 01 03:35:18
  TRACK 196 AUDIO
    TITLE "19:cjc135_0098"
    INDEX 01 03:35:46
  TRACK 197 AUDIO
    TITLE "0:"
    INDEX 01 03:37:50
  TRACK 198 AUDIO
    TITLE "18:cjc135_0099"
    INDEX 01 03:38:50
  TRACK 199 AUDIO
    TITLE "0:"
    INDEX 01 03:39:55
  TRACK 200 AUDIO
    TITLE "19:cjc135_0100"
    INDEX 01 03:40:06
  TRACK 201 AUDIO
    TITLE "0:"
    INDEX 01 03:43:49
  TRACK 202 AUDIO
    TITLE "18:cjc135_0101"
    INDEX 01 03:44:47
  TRACK 203 AUDIO
    TITLE "0:"
    INDEX 01 03:45:52
  TRACK 204 AUDIO
    TITLE "19:cjc135_0102"
    INDEX 01 03:46:04
  TRACK 205 AUDIO
    TITLE "0:"
    INDEX 01 03:48:52
  TRACK 206 AUDIO
    TITLE "18:cjc135_0103"
    INDEX 01 03:49:52
  TRACK 207 AUDIO
    TITLE "0:"
    INDEX 01 03:50:57
  TRACK 208 AUDIO
    TITLE "19:cjc135_0104"
    INDEX 01 03:51:11
  TRACK 209 AUDIO
    TITLE "0:"
    INDEX 01 03:53:16
  TRACK 210 AUDIO
    TITLE "18:cjc135_0105"
    INDEX 01 03:54:18
  TRACK 211 AUDIO
    TITLE "0:"
    INDEX 01 03:55:13
  TRACK 212 AUDIO
    TITLE "19:cjc135_0106"
    INDEX 01 03:55:37
  TRACK 213 AUDIO
    TITLE "0:"
    INDEX 01 03:57:51
  TRACK 214 AUDIO
    TITLE "18:cjc135_0107"
    INDEX 01 03:58:53
  TRACK 215 AUDIO
    TITLE "0:"
    INDEX 01 03:59:48
  TRACK 216 AUDIO
    TITLE "19:cjc135_0108"
    INDEX 01 04:00:00
  TRACK 217 AUDIO
    TITLE "0:"
    INDEX 01 04:01:31
  TRACK 218 AUDIO
    TITLE "18:cjc135_0109"
    INDEX 01 04:02:33
  TRACK 219 AUDIO
    TITLE "0:"
    INDEX 01 04:03:54
  TRACK 220 AUDIO
    TITLE "19:cjc135_0110"
    INDEX 01 04:04:04
  TRACK 221 AUDIO
    TITLE "0:"
    INDEX 01 04:06:58
  TRACK 222 AUDIO
    TITLE "18:cjc135_0111"
    INDEX 01 04:07:57
  TRACK 223 AUDIO
    TITLE "0:"
    INDEX 01 04:08:55
  TRACK 224 AUDIO
    TITLE "19:cjc135_0112"
    INDEX 01 04:09:07
  TRACK 225 AUDIO
    TITLE "0:"
    INDEX 01 04:10:40
  TRACK 226 AUDIO
    TITLE "18:cjc135_0113"
    INDEX 01 04:11:39
  TRACK 227 AUDIO
    TITLE "0:"
    INDEX 01 04:12:39
  TRACK 228 AUDIO
    TITLE "19:cjc135_0114"
    INDEX 01 04:12:64
  TRACK 229 AUDIO
    TITLE "0:"
    INDEX 01 04:14:14
  TRACK 230 AUDIO
    TITLE "18:cjc135_0115"
    INDEX 01 04:15:14
  TRACK 231 AUDIO
    TITLE "0:"
    INDEX 01 04:16:13
  TRACK 232 AUDIO
    TITLE "19:cjc135_0116"
    INDEX 01 04:16:37
  TRACK 233 AUDIO
    TITLE "0:"
    INDEX 01 04:19:29
  TRACK 234 AUDIO
    TITLE "18:cjc135_0117"
    INDEX 01 04:20:31
  TRACK 235 AUDIO
    TITLE "0:"
    INDEX 01 04:21:22
  TRACK 236 AUDIO
    TITLE "19:cjc135_0118"
    INDEX 01 04:21:44
  TRACK 237 AUDIO
    TITLE "0:"
    INDEX 01 04:22:73
  TRACK 238 AUDIO
    TITLE "18:cjc135_0119"
    INDEX 01 04:23:72
  TRACK 239 AUDIO
    TITLE "0:"
    INDEX 01 04:24:73
  TRACK 240 AUDIO
    TITLE "19:cjc135_0120"
    INDEX 01 04:25:22
  TRACK 241 AUDIO
    TITLE "0:"
    INDEX 01 04:26:43
  TRACK 242 AUDIO
    TITLE "18:cjc135_0121"
    INDEX 01 04:27:44
  TRACK 243 AUDIO
    TITLE "0:"
    INDEX 01 04:28:58
  TRACK 244 AUDIO
    TITLE "19:cjc135_0122"
    INDEX 01 04:29:08
  TRACK 245 AUDIO
    TITLE "0:"
    INDEX 01 04:31:28
  TRACK 246 AUDIO
    TITLE "18:cjc135_0123"
    INDEX 01 04:32:30
  TRACK 247 AUDIO
    TITLE "0:"
    INDEX 01 04:33:29
  TRACK 248 AUDIO
    TITLE "19:cjc135_0124"
    INDEX 01 04:33:55
  TRACK 249 AUDIO
    TITLE "0:"
    INDEX 01 04:35:30
  TRACK 250 AUDIO
    TITLE "18:cjc135_0125"
    INDEX 01 04:36:32
  TRACK 251 AUDIO
    TITLE "0:"
    INDEX 01 04:37:43
  TRACK 252 AUDIO
    TITLE "19:cjc135_0126"
    INDEX 01 04:37:70
  TRACK 253 AUDIO
    TITLE "0:"
    INDEX 01 04:40:43
  TRACK 254 AUDIO
    TITLE "18:cjc135_0127"
    INDEX 01 04:41:43
  TRACK 255 AUDIO
    TITLE "0:"
    INDEX 01 04:42:40
  TRACK 256 AUDIO
    TITLE "19:cjc135_0128"
    INDEX 01 04:42:67
  TRACK 257 AUDIO
    TITLE "0:"
    INDEX 01 04:44:27
  TRACK 258 AUDIO
    TITLE "18:cjc135_0129"
    INDEX 01 04:45:31
  TRACK 259 AUDIO
    TITLE "0:"
    INDEX 01 04:46:36
  TRACK 260 AUDIO
    TITLE "19:cjc135_0130"
    INDEX 01 04:46:61
  TRACK 261 AUDIO
    TITLE "0:"
    INDEX 01 04:48:70
  TRACK 262 AUDIO
    TITLE "18:cjc135_0131"
    INDEX 01 04:49:69
  TRACK 263 AUDIO
    TITLE "0:"
    INDEX 01 04:51:00
  TRACK 264 AUDIO
    TITLE "19:cjc135_0132"
    INDEX 01 04:51:27
  TRACK 265 AUDIO
    TITLE "0:"
    INDEX 01 04:52:72
  TRACK 266 AUDIO
    TITLE "18:cjc135_0133"
    INDEX 01 04:54:00
  TRACK 267 AUDIO
    TITLE "0:"
    INDEX 01 04:55:11
  TRACK 268 AUDIO
    TITLE "19:cjc135_0134"
    INDEX 01 04:55:37
  TRACK 269 AUDIO
    TITLE "0:"
    INDEX 01 04:57:67
  TRACK 270 AUDIO
    TITLE "18:cjc135_0135"
    INDEX 01 04:58:66
  TRACK 271 AUDIO
    TITLE "0:"
    INDEX 01 05:00:01
  TRACK 272 AUDIO
    TITLE "19:cjc135_0136"
    INDEX 01 05:00:24
  TRACK 273 AUDIO
    TITLE "0:"
    INDEX 01 05:02:56
  TRACK 274 AUDIO
    TITLE "18:cjc135_0137"
    INDEX 01 05:03:54
  TRACK 275 AUDIO
    TITLE "0:"
    INDEX 01 05:04:53
  TRACK 276 AUDIO
    TITLE "19:cjc135_0138"
    INDEX 01 05:05:04
  TRACK 277 AUDIO
    TITLE "0:"
    INDEX 01 05:06:70
  TRACK 278 AUDIO
    TITLE "18:cjc135_0139"
    INDEX 01 05:07:69
  TRACK 279 AUDIO
    TITLE "0:"
    INDEX 01 05:09:04
  TRACK 280 AUDIO
    TITLE "19:cjc135_0140"
    INDEX 01 05:09:27
  TRACK 281 AUDIO
    TITLE "0:"
    INDEX 01 05:10:66
  TRACK 282 AUDIO
    TITLE "18:cjc135_0141"
    INDEX 01 05:11:67
  TRACK 283 AUDIO
    TITLE "0:"
    INDEX 01 05:13:07
  TRACK 284 AUDIO
    TITLE "19:cjc135_0142"
    INDEX 01 05:13:29
  TRACK 285 AUDIO
    TITLE "0:"
    INDEX 01 05:15:51
  TRACK 286 AUDIO
    TITLE "18:cjc135_0143"
    INDEX 01 05:16:53
  TRACK 287 AUDIO
    TITLE "0:"
    INDEX 01 05:17:52
  TRACK 288 AUDIO
    TITLE "19:cjc135_0144"
    INDEX 01 05:18:05
  TRACK 289 AUDIO
    TITLE "0:"
    INDEX 01 05:20:31
  TRACK 290 AUDIO
    TITLE "18:cjc135_0145"
    INDEX 01 05:21:34
  TRACK 291 AUDIO
    TITLE "0:"
    INDEX 01 05:22:42
  TRACK 292 AUDIO
    TITLE "19:cjc135_0146"
    INDEX 01 05:22:65
  TRACK 293 AUDIO
    TITLE "0:"
    INDEX 01 05:25:30
  TRACK 294 AUDIO
    TITLE "18:cjc135_0147"
    INDEX 01 05:26:31
  TRACK 295 AUDIO
    TITLE "0:"
    INDEX 01 05:27:31
  TRACK 296 AUDIO
    TITLE "19:cjc135_0148"
    INDEX 01 05:27:56
  TRACK 297 AUDIO
    TITLE "0:"
    INDEX 01 05:29:63
  TRACK 298 AUDIO
    TITLE "18:cjc135_0149"
    INDEX 01 05:30:65
  TRACK 299 AUDIO
    TITLE "0:"
    INDEX 01 05:31:70
  TRACK 300 AUDIO
    TITLE "19:cjc135_0150"
    INDEX 01 05:32:20
  TRACK 301 AUDIO
    TITLE "0:"
    INDEX 01 05:33:73
  TRACK 302 AUDIO
    TITLE "18:cjc135_0151"
    INDEX 01 05:34:72
  TRACK 303 AUDIO
    TITLE "0:"
    INDEX 01 05:35:72
  TRACK 304 AUDIO
    TITLE "19:cjc135_0152"
    INDEX 01 05:36:28
  TRACK 305 AUDIO
    TITLE "0:"
    INDEX 01 05:37:61
  TRACK 306 AUDIO
    TITLE "18:cjc135_0153"
    INDEX 01 05:38:60
  TRACK 307 AUDIO
    TITLE "0:"
    INDEX 01 05:39:60
  TRACK 308 AUDIO
    TITLE "19:cjc135_0154"
    INDEX 01 05:40:14
  TRACK 309 AUDIO
    TITLE "0:"
    INDEX 01 05:41:33
  TRACK 310 AUDIO
    TITLE "18:cjc135_0155"
    INDEX 01 05:42:34
  TRACK 311 AUDIO
    TITLE "0:"
    INDEX 01 05:43:51
  TRACK 312 AUDIO
    TITLE "19:cjc135_0156"
    INDEX 01 05:44:00
  TRACK 313 AUDIO
    TITLE "0:"
    INDEX 01 05:46:09
  TRACK 314 AUDIO
    TITLE "18:cjc135_0157"
    INDEX 01 05:47:10
  TRACK 315 AUDIO
    TITLE "0:"
    INDEX 01 05:48:27
  TRACK 316 AUDIO
    TITLE "19:cjc135_0158"
    INDEX 01 05:48:53
  TRACK 317 AUDIO
    TITLE "0:"
    INDEX 01 05:51:24
  TRACK 318 AUDIO
    TITLE "18:cjc135_0159"
    INDEX 01 05:52:25
  TRACK 319 AUDIO
    TITLE "0:"
    INDEX 01 05:53:22
  TRACK 320 AUDIO
    TITLE "19:cjc135_0160"
    INDEX 01 05:53:48
  TRACK 321 AUDIO
    TITLE "0:"
    INDEX 01 05:55:68
  TRACK 322 AUDIO
    TITLE "18:cjc135_0161"
    INDEX 01 05:56:70
  TRACK 323 AUDIO
    TITLE "0:"
    INDEX 01 05:57:73
  TRACK 324 AUDIO
    TITLE "19:cjc135_0162"
    INDEX 01 05:58:22
  TRACK 325 AUDIO
    TITLE "0:"
    INDEX 01 06:00:64
  TRACK 326 AUDIO
    TITLE "18:cjc135_0163"
    INDEX 01 06:01:63
  TRACK 327 AUDIO
    TITLE "0:"
    INDEX 01 06:02:55
  TRACK 328 AUDIO
    TITLE "19:cjc135_0164"
    INDEX 01 06:03:07
  TRACK 329 AUDIO
    TITLE "0:"
    INDEX 01 06:04:42
  TRACK 330 AUDIO
    TITLE "18:cjc135_0165"
    INDEX 01 06:05:41
  TRACK 331 AUDIO
    TITLE "0:"
    INDEX 01 06:06:43
  TRACK 332 AUDIO
    TITLE "19:cjc135_0166"
    INDEX 01 06:06:70
  TRACK 333 AUDIO
    TITLE "0:"
    INDEX 01 06:08:73
  TRACK 334 AUDIO
    TITLE "18:cjc135_0167"
    INDEX 01 06:09:72
  TRACK 335 AUDIO
    TITLE "0:"
    INDEX 01 06:11:03
  TRACK 336 AUDIO
    TITLE "19:cjc135_0168"
    INDEX 01 06:11:32
  TRACK 337 AUDIO
    TITLE "0:"
    INDEX 01 06:13:23
  TRACK 338 AUDIO
    TITLE "18:cjc135_0169"
    INDEX 01 06:14:23
  TRACK 339 AUDIO
    TITLE "0:"
    INDEX 01 06:15:28
  TRACK 340 AUDIO
    TITLE "19:cjc135_0170"
    INDEX 01 06:15:55
  TRACK 341 AUDIO
    TITLE "0:"
    INDEX 01 06:17:52
  TRACK 342 AUDIO
    TITLE "18:cjc135_0171"
    INDEX 01 06:18:50
  TRACK 343 AUDIO
    TITLE "0:"
    INDEX 01 06:19:55
  TRACK 344 AUDIO
    TITLE "19:cjc135_0172"
    INDEX 01 06:20:06
  TRACK 345 AUDIO
    TITLE "0:"
    INDEX 01 06:22:63
  TRACK 346 AUDIO
    TITLE "18:cjc135_0173"
    INDEX 01 06:23:63
  TRACK 347 AUDIO
    TITLE "0:"
    INDEX 01 06:24:62
  TRACK 348 AUDIO
    TITLE "19:cjc135_0174"
    INDEX 01 06:25:13
  TRACK 349 AUDIO
    TITLE "0:"
    INDEX 01 06:27:29
  TRACK 350 AUDIO
    TITLE "18:cjc135_0175"
    INDEX 01 06:28:27
  TRACK 351 AUDIO
    TITLE "0:"
    INDEX 01 06:29:36
  TRACK 352 AUDIO
    TITLE "19:cjc135_0176"
    INDEX 01 06:29:61
  TRACK 353 AUDIO
    TITLE "0:"
    INDEX 01 06:31:45
  TRACK 354 AUDIO
    TITLE "18:cjc135_0177"
    INDEX 01 06:32:48
  TRACK 355 AUDIO
    TITLE "0:"
    INDEX 01 06:33:47
  TRACK 356 AUDIO
    TITLE "19:cjc135_0178"
    INDEX 01 06:33:73
  TRACK 357 AUDIO
    TITLE "0:"
    INDEX 01 06:35:70
  TRACK 358 AUDIO
    TITLE "18:cjc135_0179"
    INDEX 01 06:36:69
  TRACK 359 AUDIO
    TITLE "0:"
    INDEX 01 06:38:00
  TRACK 360 AUDIO
    TITLE "19:cjc135_0180"
    INDEX 01 06:38:27
  TRACK 361 AUDIO
    TITLE "0:"
    INDEX 01 06:41:27
  TRACK 362 AUDIO
    TITLE "18:cjc135_0181"
    INDEX 01 06:42:27
  TRACK 363 AUDIO
    TITLE "0:"
    INDEX 01 06:43:26
  TRACK 364 AUDIO
    TITLE "19:cjc135_0182"
    INDEX 01 06:43:50
  TRACK 365 AUDIO
    TITLE "0:"
    INDEX 01 06:45:06
  TRACK 366 AUDIO
    TITLE "18:cjc135_0183"
    INDEX 01 06:46:07
  TRACK 367 AUDIO
    TITLE "0:"
    INDEX 01 06:47:28
  TRACK 368 AUDIO
    TITLE "19:cjc135_0184"
    INDEX 01 06:47:51
  TRACK 369 AUDIO
    TITLE "0:"
    INDEX 01 06:49:60
  TRACK 370 AUDIO
    TITLE "18:cjc135_0185"
    INDEX 01 06:50:60
  TRACK 371 AUDIO
    TITLE "0:"
    INDEX 01 06:51:67
  TRACK 372 AUDIO
    TITLE "19:cjc135_0186"
    INDEX 01 06:52:17
  TRACK 373 AUDIO
    TITLE "0:"
    INDEX 01 06:54:08
  TRACK 374 AUDIO
    TITLE "18:cjc135_0187"
    INDEX 01 06:55:08
  TRACK 375 AUDIO
    TITLE "0:"
    INDEX 01 06:56:05
  TRACK 376 AUDIO
    TITLE "19:cjc135_0188"
    INDEX 01 06:56:29
  TRACK 377 AUDIO
    TITLE "0:"
    INDEX 01 06:58:22
  TRACK 378 AUDIO
    TITLE "18:cjc135_0189"
    INDEX 01 06:59:25
  TRACK 379 AUDIO
    TITLE "0:"
    INDEX 01 07:00:27
  TRACK 380 AUDIO
    TITLE "19:cjc135_0190"
    INDEX 01 07:00:52
  TRACK 381 AUDIO
    TITLE "0:"
    INDEX 01 07:02:49
  TRACK 382 AUDIO
    TITLE "18:cjc135_0191"
    INDEX 01 07:03:52
  TRACK 383 AUDIO
    TITLE "0:"
    INDEX 01 07:04:54
  TRACK 384 AUDIO
    TITLE "19:cjc135_0192"
    INDEX 01 07:05:04
  TRACK 385 AUDIO
    TITLE "0:"
    INDEX 01 07:08:22
  TRACK 386 AUDIO
    TITLE "18:cjc135_0193"
    INDEX 01 07:09:20
  TRACK 387 AUDIO
    TITLE "0:"
    INDEX 01 07:10:17
  TRACK 388 AUDIO
    TITLE "19:cjc135_0194"
    INDEX 01 07:10:43
  TRACK 389 AUDIO
    TITLE "0:"
    INDEX 01 07:12:22
  TRACK 390 AUDIO
    TITLE "18:cjc135_0195"
    INDEX 01 07:13:23
  TRACK 391 AUDIO
    TITLE "0:"
    INDEX 01 07:14:31
  TRACK 392 AUDIO
    TITLE "19:cjc135_0196"
    INDEX 01 07:14:62
  TRACK 393 AUDIO
    TITLE "0:"
    INDEX 01 07:17:04
  TRACK 394 AUDIO
    TITLE "18:cjc135_0197"
    INDEX 01 07:18:05
  TRACK 395 AUDIO
    TITLE "0:"
    INDEX 01 07:18:72
  TRACK 396 AUDIO
    TITLE "19:cjc135_0198"
    INDEX 01 07:19:22
  TRACK 397 AUDIO
    TITLE "0:"
    INDEX 01 07:20:67
  TRACK 398 AUDIO
    TITLE "18:cjc135_0199"
    INDEX 01 07:21:68
  TRACK 399 AUDIO
    TITLE "0:"
    INDEX 01 07:23:00
  TRACK 400 AUDIO
    TITLE "19:cjc135_0200"
    INDEX 01 07:23:24
  TRACK 401 AUDIO
    TITLE "0:"
    INDEX 01 07:25:33
